<mxfile host="65bd71144e">
    <diagram id="zdeQTGbIATjgNxxbiPbU" name="Application's Architecture">
        <mxGraphModel dx="1068" dy="421" grid="1" gridSize="10" guides="1" tooltips="1" connect="1" arrows="1" fold="1" page="1" pageScale="1" pageWidth="850" pageHeight="1100" math="0" shadow="0">
            <root>
                <mxCell id="0"/>
                <mxCell id="1" parent="0"/>
                <mxCell id="4" value="HTTPS Request" style="edgeStyle=none;html=1;entryX=0;entryY=0.5;entryDx=0;entryDy=0;" edge="1" parent="1" source="2" target="3">
                    <mxGeometry relative="1" as="geometry"/>
                </mxCell>
                <mxCell id="2" value="Client" style="verticalLabelPosition=bottom;html=1;verticalAlign=top;align=center;strokeColor=none;fillColor=#00BEF2;shape=mxgraph.azure.computer;pointerEvents=1;" vertex="1" parent="1">
                    <mxGeometry x="85" y="362.5" width="50" height="45" as="geometry"/>
                </mxCell>
                <mxCell id="7" value="TLS Request (JSON)" style="edgeStyle=none;html=1;entryX=0;entryY=0.5;entryDx=0;entryDy=0;" edge="1" parent="1" source="3" target="6">
                    <mxGeometry relative="1" as="geometry"/>
                </mxCell>
                <mxCell id="10" value="TLS Request (JSON)" style="edgeStyle=none;html=1;entryX=0;entryY=0.5;entryDx=0;entryDy=0;" edge="1" parent="1" source="3" target="9">
                    <mxGeometry relative="1" as="geometry"/>
                </mxCell>
                <mxCell id="13" value="TLS Request (JSON)" style="edgeStyle=none;html=1;entryX=0;entryY=0.5;entryDx=0;entryDy=0;" edge="1" parent="1" source="3" target="12">
                    <mxGeometry relative="1" as="geometry"/>
                </mxCell>
                <mxCell id="3" value="Proxy Server" style="image;html=1;image=img/lib/clip_art/computers/Server_128x128.png" vertex="1" parent="1">
                    <mxGeometry x="260" y="350" width="80" height="80" as="geometry"/>
                </mxCell>
                <mxCell id="5" value="MongoDB Database" style="image;html=1;image=img/lib/clip_art/computers/Database_128x128.png" vertex="1" parent="1">
                    <mxGeometry x="685" y="350" width="80" height="80" as="geometry"/>
                </mxCell>
                <mxCell id="8" value="TLS Connection" style="edgeStyle=none;html=1;entryX=0;entryY=0.5;entryDx=0;entryDy=0;" edge="1" parent="1" source="6" target="5">
                    <mxGeometry relative="1" as="geometry"/>
                </mxCell>
                <mxCell id="6" value="API v1 Server" style="aspect=fixed;perimeter=ellipsePerimeter;html=1;align=center;shadow=0;dashed=0;spacingTop=3;image;image=img/lib/active_directory/database_server.svg;" vertex="1" parent="1">
                    <mxGeometry x="505" y="270" width="41" height="50" as="geometry"/>
                </mxCell>
                <mxCell id="11" value="TLS Connection" style="edgeStyle=none;html=1;entryX=0;entryY=0.5;entryDx=0;entryDy=0;" edge="1" parent="1" source="9" target="5">
                    <mxGeometry relative="1" as="geometry"/>
                </mxCell>
                <mxCell id="9" value="API v2 Server" style="aspect=fixed;perimeter=ellipsePerimeter;html=1;align=center;shadow=0;dashed=0;spacingTop=3;image;image=img/lib/active_directory/database_server.svg;" vertex="1" parent="1">
                    <mxGeometry x="505" y="365" width="41" height="50" as="geometry"/>
                </mxCell>
                <mxCell id="14" value="TLS Connection" style="edgeStyle=none;html=1;entryX=0;entryY=0.5;entryDx=0;entryDy=0;exitX=1;exitY=0.5;exitDx=0;exitDy=0;" edge="1" parent="1" source="12" target="5">
                    <mxGeometry relative="1" as="geometry"/>
                </mxCell>
                <mxCell id="12" value="..." style="text;html=1;strokeColor=none;fillColor=none;align=center;verticalAlign=middle;whiteSpace=wrap;rounded=0;" vertex="1" parent="1">
                    <mxGeometry x="495.5" y="470" width="60" height="30" as="geometry"/>
                </mxCell>
            </root>
        </mxGraphModel>
    </diagram>
    <diagram id="DfJgDdk50lekWYiQuf2P" name="Proxy Server's Behaviour">
        <mxGraphModel dx="890" dy="351" grid="1" gridSize="10" guides="1" tooltips="1" connect="1" arrows="1" fold="1" page="1" pageScale="1" pageWidth="850" pageHeight="1100" math="0" shadow="0">
            <root>
                <mxCell id="0"/>
                <mxCell id="1" parent="0"/>
                <mxCell id="tH8XNVJV97nOS5UXpl0x-3" value="&amp;lt;&amp;lt;static&amp;gt;&amp;gt;&lt;br&gt;setRunning()" style="edgeStyle=none;html=1;" edge="1" parent="1" source="tH8XNVJV97nOS5UXpl0x-1">
                    <mxGeometry relative="1" as="geometry">
                        <mxPoint x="370" y="160" as="targetPoint"/>
                    </mxGeometry>
                </mxCell>
                <mxCell id="tH8XNVJV97nOS5UXpl0x-8" value="&amp;lt;&amp;lt;static&amp;gt;&amp;gt;&lt;br&gt;start" style="edgeStyle=none;html=1;entryX=0.083;entryY=-0.008;entryDx=0;entryDy=0;entryPerimeter=0;" edge="1" parent="1" source="tH8XNVJV97nOS5UXpl0x-1" target="tH8XNVJV97nOS5UXpl0x-7">
                    <mxGeometry relative="1" as="geometry"/>
                </mxCell>
                <mxCell id="tH8XNVJV97nOS5UXpl0x-1" value="ChatServer" style="shape=umlLifeline;perimeter=lifelinePerimeter;whiteSpace=wrap;html=1;container=1;collapsible=0;recursiveResize=0;outlineConnect=0;" vertex="1" parent="1">
                    <mxGeometry x="120" y="80" width="100" height="300" as="geometry"/>
                </mxCell>
                <mxCell id="tH8XNVJV97nOS5UXpl0x-2" value="ServerState" style="shape=umlLifeline;perimeter=lifelinePerimeter;whiteSpace=wrap;html=1;container=1;collapsible=0;recursiveResize=0;outlineConnect=0;" vertex="1" parent="1">
                    <mxGeometry x="325" y="80" width="100" height="300" as="geometry"/>
                </mxCell>
                <mxCell id="tH8XNVJV97nOS5UXpl0x-6" value="" style="html=1;points=[];perimeter=orthogonalPerimeter;" vertex="1" parent="tH8XNVJV97nOS5UXpl0x-2">
                    <mxGeometry x="45" y="80" width="10" height="20" as="geometry"/>
                </mxCell>
                <mxCell id="tH8XNVJV97nOS5UXpl0x-4" value="ThreadPool" style="shape=umlLifeline;perimeter=lifelinePerimeter;whiteSpace=wrap;html=1;container=1;collapsible=0;recursiveResize=0;outlineConnect=0;" vertex="1" parent="1">
                    <mxGeometry x="530" y="80" width="100" height="300" as="geometry"/>
                </mxCell>
                <mxCell id="tH8XNVJV97nOS5UXpl0x-7" value="" style="html=1;points=[];perimeter=orthogonalPerimeter;" vertex="1" parent="tH8XNVJV97nOS5UXpl0x-4">
                    <mxGeometry x="45" y="120" width="10" height="20" as="geometry"/>
                </mxCell>
            </root>
        </mxGraphModel>
    </diagram>
</mxfile>